<svg class="svg-icons" xmlns="http://www.w3.org/2000/svg">
  <defs>
    <svg id="cb-chrome-logo" viewBox="0 0 60 60">
      <path d="M20 30.1875C20 32.9375 20.9792 35.2917 22.9375 37.25C24.8958 39.2083 27.25 40.1875 30 40.1875C32.75 40.1875 35.1042 39.2083 37.0625 37.25C39.0208 35.2917 40 32.9375 40 30.1875C40 27.4375 39.0208 25.0833 37.0625 23.125C35.1042 21.1667 32.75 20.1875 30 20.1875C27.25 20.1875 24.8958 21.1667 22.9375 23.125C20.9792 25.0833 20 27.4375 20 30.1875ZM30 45.1875C30.5417 45.1875 31.0625 45.1667 31.5625 45.125C32.0625 45.0833 32.5625 45 33.0625 44.875L27.1875 55C20.8958 54.2917 15.625 51.5933 11.375 46.905C7.125 42.2183 5 36.6458 5 30.1875C5 28.4375 5.16667 26.7392 5.5 25.0925C5.83333 23.4475 6.33333 21.875 7 20.375L17 37.6875C18.2917 39.9375 20.0833 41.75 22.375 43.125C24.6667 44.5 27.2083 45.1875 30 45.1875ZM30 15.1875C26.6667 15.1875 23.7083 16.1558 21.125 18.0925C18.5417 20.0308 16.75 22.5 15.75 25.5L9.875 15.375C12.1667 12.2917 15.0517 9.8225 18.53 7.9675C22.01 6.11417 25.8333 5.1875 30 5.1875C34.125 5.1875 37.9167 6.09333 41.375 7.905C44.8333 9.71833 47.7083 12.1458 50 15.1875H30ZM52.875 20.1875C53.5833 21.7292 54.115 23.3333 54.47 25C54.8233 26.6667 55 28.3958 55 30.1875C55 36.6458 52.885 42.2083 48.655 46.875C44.4267 51.5417 39.2083 54.25 33 55L43 37.6875C43.625 36.6042 44.115 35.4267 44.47 34.155C44.8233 32.885 45 31.5625 45 30.1875C45 28.2292 44.6558 26.4058 43.9675 24.7175C43.2808 23.0308 42.3333 21.5208 41.125 20.1875H52.875Z" />
    </svg>
    <svg id="cb-edit-auto-fix" viewBox="0 0 25 24">
      <g><path d="M9 6 7 4l2-2 2 2-2 2Zm11.5 11.5-2-2 2-2 2 2-2 2ZM5.625 21.7 2.8 18.875a.96.96 0 0 1-.3-.7c0-.267.1-.5.3-.7l9.075-9.1A2.893 2.893 0 0 1 14 7.5c.833 0 1.542.292 2.125.875S17 9.667 17 10.5s-.292 1.542-.875 2.125l-9.1 9.075c-.2.2-.433.3-.7.3a.96.96 0 0 1-.7-.3ZM19 10.025c0-1.25-.442-2.317-1.325-3.2s-1.95-1.325-3.2-1.325c1.25 0 2.317-.433 3.2-1.3C18.558 3.317 19 2.25 19 1c0 1.25.433 2.317 1.3 3.2.883.867 1.95 1.3 3.2 1.3-1.25 0-2.317.442-3.2 1.325-.867.883-1.3 1.95-1.3 3.2Zm-6.4 3.3-.375-.35-.35-.35-.35-.35-.35-.35.7.7.725.7ZM6.325 19.6l6.275-6.275-1.425-1.4-6.25 6.25 1.4 1.425Z"/></g><defs><clipPath><path fill="#fff" d="M.5 0h24v24H.5z"/></clipPath></defs>
    </svg>
    <svg id="cb-play" viewBox="0 -960 960 960">
      <path d="M320-200v-560l440 280-440 280Zm80-280Zm0 134 210-134-210-134v268Z"/>
    </svg>
    <svg id="cb-pause" viewBox="0 -960 960 960">
      <path d="M520-200v-560h240v560H520Zm-320 0v-560h240v560H200Zm400-80h80v-400h-80v400Zm-320 0h80v-400h-80v400Zm0-400v400-400Zm320 0v400-400Z"/>
    </svg>
    <svg id="cb-play-circle" viewBox="0 0 24 24">
      <g clip-path="url(#a)">
        <path d="m9.5 16.5 7-4.5-7-4.5v9ZM12 22a9.873 9.873 0 0 1-3.9-.775 10.274 10.274 0 0 1-3.175-2.15c-.9-.9-1.617-1.958-2.15-3.175A9.873 9.873 0 0 1 2 12c0-1.383.258-2.683.775-3.9a10.275 10.275 0 0 1 2.15-3.175c.9-.9 1.958-1.608 3.175-2.125A9.607 9.607 0 0 1 12 2c1.383 0 2.683.267 3.9.8a9.927 9.927 0 0 1 3.175 2.125c.9.9 1.608 1.958 2.125 3.175.533 1.217.8 2.517.8 3.9a9.607 9.607 0 0 1-.8 3.9 9.927 9.927 0 0 1-2.125 3.175c-.9.9-1.958 1.617-3.175 2.15A9.873 9.873 0 0 1 12 22Zm0-2c2.233 0 4.125-.775 5.675-2.325C19.225 16.125 20 14.233 20 12c0-2.233-.775-4.125-2.325-5.675C16.125 4.775 14.233 4 12 4c-2.233 0-4.125.775-5.675 2.325C4.775 7.875 4 9.767 4 12c0 2.233.775 4.125 2.325 5.675C7.875 19.225 9.767 20 12 20Z" fill="#fff"/>
      </g>
      <defs>
        <clipPath id="a">
          <path fill="#fff" d="M0 0h24v24H0z"/>
        </clipPath>
      </defs>
    </svg>
    <svg id="cb-arrow-outward" viewBox="0 -960 960 960">
      <path d="m256-240-56-56 384-384H240v-80h480v480h-80v-344L256-240Z"/>
    </svg>
    <svg id="cb-table-item-blank" width="41" height="4" viewBox="0 0 41 4">
      <rect x="0.833252" width="40" height="4"/>
    </svg>
    <svg id="cb-filter" xmlns="http://www.w3.org/2000/svg" width="25" height="24" fill="none"><g clip-path="url(#a)"><path fill="currentColor" d="M11.5 21v-6h2v2h8v2h-8v2h-2Zm-8-2v-2h6v2h-6Zm4-4v-2h-4v-2h4V9h2v6h-2Zm4-2v-2h10v2h-10Zm4-4V3h2v2h4v2h-4v2h-2Zm-12-2V5h10v2h-10Z"/></g><defs><clipPath id="a"><path fill="#fff" d="M.5 0h24v24H.5z"/></clipPath></defs></svg>
    <svg id="cb-battery" width="24" height="24" viewBox="0 0 150 150" xmlns="http://www.w3.org/2000/svg">
      <g clip-path="url(#clip0_5372_84507)">
        <path d="M52.1875 134.375C50.5208 134.375 49.1667 133.854 48.125 132.812C47.0833 131.667 46.5625 130.312 46.5625 128.75V32.1875C46.5625 30.5208 47.0833 29.1667 48.125 28.125C49.1667 27.0833 50.5208 26.5625 52.1875 26.5625H63.4375V15.625H86.5625V26.5625H97.8125C99.4792 26.5625 100.833 27.0833 101.875 28.125C102.917 29.1667 103.438 30.5208 103.438 32.1875V75.625C101.771 75.7292 100.156 75.9375 98.5938 76.25C97.1354 76.4583 95.625 76.8229 94.0625 77.3437V35.7812H55.9375V125H71.25C71.875 126.771 72.6042 128.437 73.4375 130C74.2708 131.562 75.3125 133.021 76.5625 134.375H52.1875ZM101.25 134.375V116.875H83.5938V107.5H101.25V89.8437H110.625V107.5H128.125V116.875H110.625V134.375H101.25Z" />
      </g>
      <defs>
        <clipPath id="clip0_5372_84507">
          <rect width="150" height="150" fill="white"/>
        </clipPath>
      </defs>
    </svg>
    <svg id="cb-gpu" width="24" height="24" viewBox="0 0 150 150" xmlns="http://www.w3.org/2000/svg">
      <g clip-path="url(#clip0_5378_84558)">
        <path d="M38.4375 111.562V87.9687H71.4063V111.562H38.4375ZM38.4375 80.7812V38.4375H71.4063V80.7812H38.4375ZM78.5938 111.562V69.2187H111.563V111.562H78.5938ZM78.5938 62.0312V38.4375H111.563V62.0312H78.5938ZM33.125 128.125H116.875C120 128.125 122.656 127.031 124.844 124.844C127.031 122.656 128.125 120 128.125 116.875V103.906H139.219V94.5312H128.125V79.6875H139.219V70.3125H128.125V55.4687H139.219V46.0937H128.125V33.125C128.125 30 127.031 27.3437 124.844 25.1562C122.656 22.9687 120 21.875 116.875 21.875H33.125C30 21.875 27.3438 22.9687 25.1563 25.1562C22.9688 27.3437 21.875 30 21.875 33.125V116.875C21.875 120 22.9688 122.656 25.1563 124.844C27.3438 127.031 30 128.125 33.125 128.125ZM33.125 118.75C32.7083 118.75 32.2917 118.542 31.875 118.125C31.4583 117.708 31.25 117.292 31.25 116.875V33.125C31.25 32.7083 31.4583 32.2917 31.875 31.875C32.2917 31.4583 32.7083 31.25 33.125 31.25H116.875C117.292 31.25 117.708 31.4583 118.125 31.875C118.542 32.2917 118.75 32.7083 118.75 33.125V116.875C118.75 117.292 118.542 117.708 118.125 118.125C117.708 118.542 117.292 118.75 116.875 118.75H33.125ZM31.25 31.25C31.25 31.25 31.25 31.4583 31.25 31.875C31.25 32.2917 31.25 32.7083 31.25 33.125V116.875C31.25 117.292 31.25 117.708 31.25 118.125C31.25 118.542 31.25 118.75 31.25 118.75C31.25 118.75 31.25 118.542 31.25 118.125C31.25 117.708 31.25 117.292 31.25 116.875V33.125C31.25 32.7083 31.25 32.2917 31.25 31.875C31.25 31.4583 31.25 31.25 31.25 31.25Z" />
      </g>
      <defs>
        <clipPath id="clip0_5378_84558">
          <rect width="150" height="150" fill="white"/>
        </clipPath>
      </defs>
    </svg>
    <svg id="cb-screenresolution" width="24" height="24" viewBox="0 0 150 150" xmlns="http://www.w3.org/2000/svg">
      <path d="M7.46899 123.752V112.723H29.5278V107.208C26.4947 107.208 23.8752 106.151 21.6694 104.037C19.5554 101.831 18.4984 99.2115 18.4984 96.1784V41.0314C18.4984 37.9983 19.5554 35.4248 21.6694 33.3108C23.8752 31.1049 26.4947 30.002 29.5278 30.002H117.763C120.796 30.002 123.37 31.1049 125.484 33.3108C127.69 35.4248 128.793 37.9983 128.793 41.0314V96.1784C128.793 99.2115 127.69 101.831 125.484 104.037C123.37 106.151 120.796 107.208 117.763 107.208V112.723H139.822V123.752H7.46899ZM29.5278 96.1784H117.763V41.0314H29.5278V96.1784Z" />
      <path d="M56.1016 78.7507H50.4766V56.2507H56.1016V65.6257H63.6016V56.2507H69.2266V78.7507H63.6016V71.2507H56.1016V78.7507Z" />
      <path fill-rule="evenodd" clip-rule="evenodd" d="M91.7266 78.7507H76.7266V56.2507H91.7266C92.7891 56.2507 93.6641 56.6257 94.3516 57.3757C95.1016 58.0632 95.4766 58.9382 95.4766 60.0007V75.0007C95.4766 76.0632 95.1016 76.9694 94.3516 77.7194C93.6641 78.4069 92.7891 78.7507 91.7266 78.7507ZM82.3516 61.8757V73.1257H89.8516V61.8757H82.3516Z" />
    </svg>
    <svg id="cb-screensize" width="24" height="24" viewBox="0 0 150 150" xmlns="http://www.w3.org/2000/svg">
      <g clip-path="url(#clip0_5372_84530)">
        <path d="M95.3125 99.0625H117.813V76.5625H110.313V91.5625H95.3125V99.0625ZM32.1875 60.9375H39.6875V45.9375H54.6875V38.4375H32.1875V60.9375ZM53.125 128.125V115.625H26.875C23.75 115.625 21.0938 114.531 18.9063 112.344C16.7188 110.156 15.625 107.5 15.625 104.375V33.125C15.625 30 16.7188 27.3437 18.9063 25.1562C21.0938 22.9687 23.75 21.875 26.875 21.875H123.125C126.25 21.875 128.906 22.9687 131.094 25.1562C133.281 27.3437 134.375 30 134.375 33.125V104.375C134.375 107.5 133.281 110.156 131.094 112.344C128.906 114.531 126.25 115.625 123.125 115.625H96.875V128.125H53.125ZM26.875 106.25H123.125C123.542 106.25 123.958 106.042 124.375 105.625C124.792 105.208 125 104.792 125 104.375V33.125C125 32.7083 124.792 32.2917 124.375 31.875C123.958 31.4583 123.542 31.25 123.125 31.25H26.875C26.4583 31.25 26.0417 31.4583 25.625 31.875C25.2083 32.2917 25 32.7083 25 33.125V104.375C25 104.792 25.2083 105.208 25.625 105.625C26.0417 106.042 26.4583 106.25 26.875 106.25ZM25 106.25C25 106.25 25 106.042 25 105.625C25 105.208 25 104.792 25 104.375V33.125C25 32.7083 25 32.2917 25 31.875C25 31.4583 25 31.25 25 31.25C25 31.25 25 31.4583 25 31.875C25 32.2917 25 32.7083 25 33.125V104.375C25 104.792 25 105.208 25 105.625C25 106.042 25 106.25 25 106.25Z" />
      </g>
      <defs>
        <clipPath id="clip0_5372_84530">
          <rect width="150" height="150" fill="white"/>
        </clipPath>
      </defs>
    </svg>
    <svg id="cb-devicestyle" width="24" height="24" viewBox="0 0 150 150" xmlns="http://www.w3.org/2000/svg">
      <g clip-path="url(#clip0_5372_84510)">
        <path d="M15.625 121.875V107.812H28.125V39.375C28.125 36.25 29.2188 33.5937 31.4063 31.4062C33.5938 29.2187 36.25 28.125 39.375 28.125H128.125V37.5H39.375C38.8542 37.5 38.3854 37.7083 37.9688 38.125C37.6563 38.4375 37.5 38.8542 37.5 39.375V107.812H73.4375V121.875H15.625ZM93.9063 121.875C92.3438 121.875 90.9896 121.354 89.8438 120.312C88.8021 119.167 88.2813 117.812 88.2813 116.25V56.875C88.2813 55.2083 88.8021 53.8542 89.8438 52.8125C90.9896 51.7708 92.3438 51.25 93.9063 51.25H128.75C130.417 51.25 131.771 51.7708 132.813 52.8125C133.854 53.8542 134.375 55.2083 134.375 56.875V116.25C134.375 117.812 133.854 119.167 132.813 120.312C131.771 121.354 130.417 121.875 128.75 121.875H93.9063ZM97.6563 107.812H125V60.625H97.6563V107.812ZM97.6563 107.812H125H97.6563Z" />
      </g>
      <defs>
        <clipPath id="clip0_5372_84510">
          <rect width="150" height="150" fill="white"/>
        </clipPath>
      </defs>
    </svg>
    <svg id="cb-processor" width="24" height="24" viewBox="0 0 150 150" xmlns="http://www.w3.org/2000/svg">
      <g clip-path="url(#clip0_5372_84522)">
        <path d="M59.375 90.625V59.375H90.625V90.625H59.375ZM68.75 81.25H81.25V68.75H68.75V81.25ZM57.8125 126.719V115.625H45.625C42.5 115.625 39.8438 114.531 37.6563 112.344C35.4688 110.156 34.375 107.5 34.375 104.375V92.1875H23.2813V82.8125H34.375V67.1875H23.2813V57.8125H34.375V45.625C34.375 42.5 35.4688 39.8437 37.6563 37.6562C39.8438 35.4687 42.5 34.375 45.625 34.375H57.8125V23.2812H67.1875V34.375H82.8125V23.2812H92.1875V34.375H104.375C107.5 34.375 110.156 35.4687 112.344 37.6562C114.531 39.8437 115.625 42.5 115.625 45.625V57.8125H126.719V67.1875H115.625V82.8125H126.719V92.1875H115.625V104.375C115.625 107.5 114.531 110.156 112.344 112.344C110.156 114.531 107.5 115.625 104.375 115.625H92.1875V126.719H82.8125V115.625H67.1875V126.719H57.8125ZM104.375 106.25C104.792 106.25 105.208 106.042 105.625 105.625C106.042 105.208 106.25 104.792 106.25 104.375V45.625C106.25 45.2083 106.042 44.7917 105.625 44.375C105.208 43.9583 104.792 43.75 104.375 43.75H45.625C45.2083 43.75 44.7917 43.9583 44.375 44.375C43.9583 44.7917 43.75 45.2083 43.75 45.625V104.375C43.75 104.792 43.9583 105.208 44.375 105.625C44.7917 106.042 45.2083 106.25 45.625 106.25H104.375Z" />
      </g>
      <defs>
        <clipPath id="clip0_5372_84522">
          <rect width="150" height="150" fill="white"/>
        </clipPath>
      </defs>
    </svg>
    <svg id="cb-memory" width="24" height="24" viewBox="0 0 150 150" xmlns="http://www.w3.org/2000/svg">
      <g clip-path="url(#clip0_5372_84506)">
        <path d="M39.0625 92.1875H48.4375V57.8125H39.0625V92.1875ZM70.3125 92.1875H79.6875V57.8125H70.3125V92.1875ZM101.563 92.1875H110.938V57.8125H101.563V92.1875ZM26.875 106.25H123.125C123.542 106.25 123.958 106.042 124.375 105.625C124.792 105.208 125 104.792 125 104.375V45.625C125 45.2083 124.792 44.7917 124.375 44.375C123.958 43.9583 123.542 43.75 123.125 43.75H26.875C26.4583 43.75 26.0417 43.9583 25.625 44.375C25.2083 44.7917 25 45.2083 25 45.625V104.375C25 104.792 25.2083 105.208 25.625 105.625C26.0417 106.042 26.4583 106.25 26.875 106.25ZM25 106.25C25 106.25 25 106.042 25 105.625C25 105.208 25 104.792 25 104.375V45.625C25 45.2083 25 44.7917 25 44.375C25 43.9583 25 43.75 25 43.75C25 43.75 25 43.9583 25 44.375C25 44.7917 25 45.2083 25 45.625V104.375C25 104.792 25 105.208 25 105.625C25 106.042 25 106.25 25 106.25ZM32.8125 128.125V115.625H26.875C23.75 115.625 21.0938 114.531 18.9063 112.344C16.7188 110.156 15.625 107.5 15.625 104.375V45.625C15.625 42.5 16.7188 39.8437 18.9063 37.6562C21.0938 35.4687 23.75 34.375 26.875 34.375H32.8125V21.875H42.1875V34.375H70.3125V21.875H79.6875V34.375H107.813V21.875H117.188V34.375H123.125C126.25 34.375 128.906 35.4687 131.094 37.6562C133.281 39.8437 134.375 42.5 134.375 45.625V104.375C134.375 107.5 133.281 110.156 131.094 112.344C128.906 114.531 126.25 115.625 123.125 115.625H117.188V128.125H107.813V115.625H79.6875V128.125H70.3125V115.625H42.1875V128.125H32.8125Z" />
      </g>
      <defs>
        <clipPath id="clip0_5372_84506">
          <rect width="150" height="150" fill="white"/>
        </clipPath>
      </defs>
    </svg>
    <svg id="cb-help" width="20" height="20" viewBox="0 0 16 16" xmlns="http://www.w3.org/2000/svg">
      <path d="M8 13C8.27778 13 8.51389 12.9028 8.70833 12.7083C8.90278 12.5139 9 12.2778 9 12C9 11.7222 8.90278 11.4861 8.70833 11.2917C8.51389 11.0972 8.27778 11 8 11C7.72222 11 7.48611 11.0972 7.29167 11.2917C7.09722 11.4861 7 11.7222 7 12C7 12.2778 7.09722 12.5139 7.29167 12.7083C7.48611 12.9028 7.72222 13 8 13ZM7.25 9.8125H8.77083C8.77083 9.29861 8.8125 8.9375 8.89583 8.72917C8.99306 8.50694 9.21528 8.22917 9.5625 7.89583C10.0486 7.42361 10.3819 7.02083 10.5625 6.6875C10.7569 6.35417 10.8542 5.98611 10.8542 5.58333C10.8542 4.81944 10.5903 4.20139 10.0625 3.72917C9.54861 3.24305 8.88889 3 8.08333 3C7.375 3 6.75694 3.1875 6.22917 3.5625C5.71528 3.9375 5.35417 4.44444 5.14583 5.08333L6.5 5.64583C6.625 5.25694 6.81944 4.95833 7.08333 4.75C7.36111 4.52778 7.68056 4.41667 8.04167 4.41667C8.43056 4.41667 8.75 4.52778 9 4.75C9.25 4.97222 9.375 5.26389 9.375 5.625C9.375 5.94444 9.26389 6.22917 9.04167 6.47917C8.83333 6.72917 8.59722 6.97222 8.33333 7.20833C7.84722 7.65278 7.54167 8.02083 7.41667 8.3125C7.30556 8.59028 7.25 9.09028 7.25 9.8125ZM8 16C6.90278 16 5.86806 15.7917 4.89583 15.375C3.92361 14.9583 3.06944 14.3889 2.33333 13.6667C1.61111 12.9306 1.04167 12.0764 0.625 11.1042C0.208334 10.1319 1.78814e-07 9.09722 1.78814e-07 8C1.78814e-07 6.88889 0.208334 5.85417 0.625 4.89583C1.04167 3.92361 1.61111 3.07639 2.33333 2.35417C3.06944 1.61805 3.92361 1.04167 4.89583 0.624999C5.86806 0.208333 6.90278 -7.15256e-07 8 -7.15256e-07C9.11111 -7.15256e-07 10.1458 0.208333 11.1042 0.624999C12.0764 1.04167 12.9236 1.61805 13.6458 2.35417C14.3819 3.07639 14.9583 3.92361 15.375 4.89583C15.7917 5.85417 16 6.88889 16 8C16 9.09722 15.7917 10.1319 15.375 11.1042C14.9583 12.0764 14.3819 12.9306 13.6458 13.6667C12.9236 14.3889 12.0764 14.9583 11.1042 15.375C10.1458 15.7917 9.11111 16 8 16ZM8 14.5C9.80556 14.5 11.3403 13.8681 12.6042 12.6042C13.8681 11.3403 14.5 9.80556 14.5 8C14.5 6.19444 13.8681 4.65972 12.6042 3.39583C11.3403 2.13194 9.80556 1.5 8 1.5C6.19444 1.5 4.65972 2.13194 3.39583 3.39583C2.13194 4.65972 1.5 6.19444 1.5 8C1.5 9.80556 2.13194 11.3403 3.39583 12.6042C4.65972 13.8681 6.19444 14.5 8 14.5Z"/>
    </svg>
    <!-- TODO(yukiov): Remove all logos from this file after refactoring CTA Button -->
    <svg id="cb-samsung" viewBox="0 0 111 17">
      <path fill-rule="evenodd" clip-rule="evenodd" d="M60.868 7.894s-1.08-.698-1.747-.969c0 0-2.068-1.002-2.478-1.479 0 0-.805-.794-.334-1.716 0 0 .198-.604 1.05-.604 0 0 1.108.064 1.108 1.017v1.344h3.972l-.007-1.98S62.737.266 57.753.123c0 0-3.92-.27-5.044 1.939 0 0-.441.493-.441 2.208v1.24s-.046 1.43.653 2.352c0 0 .395.604 1.367 1.271 0 0 1.975 1.112 3.16 1.75 0 0 1.197.714 1.04 1.85 0 0-.098 1.168-1.254 1.12 0 0-1.056-.05-1.056-1.194v-1.344h-4.233v1.952s-.118 3.731 5.32 3.731c0 0 5.197.11 5.44-3.83V11.58c-.001 0 .183-2.414-1.837-3.686ZM40.533.587l-1.33 8.718h-.311l-1.27-8.64h-6.635l-.333 15.788h3.929l.047-11.895h.309l2.082 11.893h4.133L43.21 4.562h.274l.095 11.891h3.949L47.103.587h-6.57ZM17.148.653l-2.613 15.782h4.229L20.312 4.2h.348l1.547 12.236h4.229L23.823.653h-6.675Zm88.738 7.024v2.328h1.085v2.499c0 1.221-.998 1.244-.998 1.244-1.214 0-1.168-1.161-1.168-1.161V3.943c0-.89 1.077-.938 1.077-.938 1.034 0 1.041 1.062 1.041 1.062V5.38h3.981c.131-2.566-.358-3.186-.358-3.186C109.558-.125 105.821 0 105.821 0c-5.742 0-5.104 4.609-5.104 4.609v8.357c.123 4.322 5.781 3.883 5.877 3.88 2.516-.292 3.276-1.128 3.276-1.128.7-.544.88-1.297.88-1.297.2-.438.25-1.835.25-1.835v-4.91h-5.114Zm-13.198 2.568h-.173L88.475.592H83.64v15.863h3.934l-.235-9.652h.176l4.186 9.652h4.688V.59h-3.985l.284 9.655Zm-18.653 2.257s.057 1.302-1.097 1.302c0 0-1.213.068-1.213-1.27L71.712.602h-4.316V12.44s-.442 4.48 5.603 4.48c0 0 5.254.066 5.254-4.274V.602h-4.218v11.9ZM8.921 7.894s-1.079-.698-1.747-.968c0 0-2.066-1.001-2.476-1.479 0 0-.805-.795-.333-1.716 0 0 .197-.603 1.047-.603 0 0 1.11.063 1.11 1.016v1.344h3.973l-.008-1.98S10.791.265 5.81.123c0 0-.376-.026-.927.003 0 0-3.018.17-4.097 1.902-.006.013-.015.022-.021.034 0 0-.441.492-.441 2.208v1.24S.277 6.94.976 7.863c0 0 .395.604 1.368 1.27 0 0 1.974 1.113 3.16 1.75 0 0 1.197.713 1.038 1.851 0 0-.097 1.167-1.252 1.12 0 0-1.057-.05-1.057-1.194v-1.345H0v1.953S-.118 17 5.32 17c0 0 5.196.11 5.44-3.83v-1.587c0-.002.182-2.417-1.839-3.689Z" fill="#1428A0"/>
    </svg>
    <svg id="cb-epson" viewBox="0 0 110 36" xmlns="http://www.w3.org/2000/svg"><title>Epson_EYV_logo</title><desc>Created with Sketch.</desc><g fill-rule="nonzero" fill="none"><g fill="#231F20"><path d="M.43 1.13 5.06 1.13 5.06 2.1 1.56 2.1 1.56 3.78 4.8 3.78 4.8 4.7 1.56 4.7 1.56 6.58 5.12 6.58 5.12 7.55.43 7.55.43 1.13zM6.01 1.13 7.35 1.13 8.81 3.4 10.33 1.13 11.59 1.13 9.47 4.22 11.75 7.55 10.39 7.55 8.79 5.1 7.16 7.55 5.87 7.55 8.15 4.22zM16.86 3.18C16.67 2.44 16.19 1.9 15.26 1.9 13.88 1.9 13.31 3.12 13.31 4.35 13.31 5.59 13.88 6.8 15.26 6.8 16.26 6.8 16.81 6.05 16.9 5.12L18 5.12C17.91 6.66 16.82 7.72 15.27 7.72 13.34 7.72 12.19 6.19 12.19 4.35 12.19 2.52 13.34.99 15.27.99 16.72 1 17.86 1.8 18 3.19L16.86 3.19 16.86 3.18ZM19.61 1.13 24.23 1.13 24.23 2.1 20.73 2.1 20.73 3.78 23.97 3.78 23.97 4.7 20.73 4.7 20.73 6.58 24.29 6.58 24.29 7.55 19.6 7.55 19.6 1.13zM26 1.13 30.62 1.13 30.62 2.1 27.12 2.1 27.12 3.78 30.36 3.78 30.36 4.7 27.12 4.7 27.12 6.58 30.68 6.58 30.68 7.55 26 7.55zM32.39 1.13 35.05 1.13C37.03 1.13 37.88 2.57 37.88 4.34 37.88 6.12 37.02 7.55 35.05 7.55L32.39 7.55 32.39 1.13ZM33.52 6.64 34.62 6.64C36.38 6.64 36.76 5.63 36.76 4.34 36.76 3.06 36.38 2.05 34.62 2.05L33.52 2.05 33.52 6.64ZM43.6 5.04 41.19 1.14 42.5 1.14 44.2 4.02 45.87 1.14 47.13 1.14 44.73 5.04 44.73 7.56 43.6 7.56zM53.51 4.34C53.51 6.18 52.36 7.71 50.43 7.71 48.5 7.71 47.35 6.18 47.35 4.34 47.35 2.51 48.5.98 50.43.98 52.36.98 53.51 2.51 53.51 4.34ZM48.48 4.34C48.48 5.58 49.05 6.79 50.43 6.79 51.81 6.79 52.38 5.58 52.38 4.34 52.38 3.11 51.81 1.89 50.43 1.89 49.06 1.9 48.48 3.11 48.48 4.34ZM54.87 1.13 56 1.13 56 4.87C56 5.74 56.05 6.73 57.51 6.73 58.97 6.73 59.02 5.73 59.02 4.87L59.02 1.13 60.15 1.13 60.15 5.24C60.15 6.88 59.1 7.7 57.51 7.7 55.93 7.7 54.87 6.88 54.87 5.24L54.87 1.13ZM61.89 1.13 64.96 1.13C66.36 1.13 67.08 1.78 67.08 2.86 67.08 4.09 66.22 4.41 66.02 4.48L66.02 4.5C66.41 4.55 66.97 4.84 66.97 5.86 66.97 6.61 67.08 7.29 67.32 7.55L66.12 7.55C65.95 7.27 65.95 6.92 65.95 6.61 65.95 5.43 65.71 4.91 64.67 4.91L63.01 4.91 63.01 7.55 61.88 7.55 61.88 1.13 61.89 1.13ZM63.02 4.06 64.86 4.06C65.57 4.06 65.96 3.71 65.96 3.04 65.96 2.22 65.43 2.06 64.84 2.06L63.01 2.06 63.01 4.06 63.02 4.06ZM71.13 1.13 72.3 1.13 73.91 6.21 73.93 6.21 75.58 1.13 76.73 1.13 74.53 7.55 73.28 7.55zM77.88 1.13 79 1.13 79 7.55 77.88 7.55zM81.54 5.41C81.54 6.4 82.27 6.79 83.17 6.79 84.16 6.79 84.53 6.3 84.53 5.82 84.53 5.32 84.26 5.13 84 5.03 83.55 4.86 82.96 4.74 82.08 4.5 80.98 4.2 80.66 3.54 80.66 2.87 80.66 1.59 81.85.98 83.01.98 84.35.98 85.48 1.69 85.48 3.04L84.36 3.04C84.3 2.21 83.74 1.9 82.97 1.9 82.45 1.9 81.8 2.09 81.8 2.74 81.8 3.19 82.1 3.44 82.56 3.57 82.66 3.6 84.08 3.97 84.41 4.06 85.26 4.31 85.66 5.03 85.66 5.7 85.66 7.14 84.38 7.71 83.1 7.71 81.63 7.71 80.44 7.01 80.41 5.41L81.54 5.41 81.54 5.41ZM87.17 1.13 88.3 1.13 88.3 7.55 87.17 7.55zM95.92 4.34C95.92 6.18 94.77 7.71 92.84 7.71 90.91 7.71 89.76 6.18 89.76 4.34 89.76 2.51 90.91.98 92.84.98 94.77.98 95.92 2.51 95.92 4.34ZM90.89 4.34C90.89 5.58 91.47 6.79 92.84 6.79 94.21 6.79 94.79 5.58 94.79 4.34 94.79 3.11 94.21 1.89 92.84 1.89 91.47 1.89 90.89 3.11 90.89 4.34ZM97.39 1.13 98.57 1.13 101.51 5.86 101.53 5.86 101.53 1.13 102.6 1.13 102.6 7.55 101.42 7.55 98.49 2.83 98.47 2.83 98.47 7.55 97.4 7.55 97.4 1.13z" transform="translate(0.000000, 28.000000)"/></g><g fill="#034EA2"><path d="M71.16.41C64.24.41 60.24 5.6 60.24 12.71 60.24 19.82 64.24 25.01 71.16 25.01 78.08 25.01 82.08 19.82 82.08 12.71 82.08 5.6 78.08.41 71.16.41ZM71.16 20.87C66.77 20.87 65.07 16.82 65.07 12.71 65.07 8.6 66.77 4.55 71.16 4.55 75.56 4.55 77.25 8.6 77.25 12.71 77.25 16.82 75.55 20.87 71.16 20.87ZM.43 1.1 17.79 1.1 17.79 5.24 5.26 5.24 5.26 10.39 16.94 10.39 16.94 14.42 5.26 14.42 5.26 20.18 17.79 20.18 17.79 24.32.43 24.32zM19.86 24.32 24.69 24.32 24.69 17.35 29.06 17.35C34.97 17.35 38.94 14.44 38.94 9.22 38.94 4 34.97 1.09 29.06 1.09L19.86 1.09 19.86 24.32ZM29.06 13.21 24.69 13.21 24.69 5.23 24.69 5.23 29.07 5.23C32.1 5.23 34.12 6.55 34.12 9.22 34.11 11.89 32.09 13.21 29.06 13.21ZM88.86 1.1 83.9 1.1 83.9 24.32 88.63 24.32 88.63 14.91C88.63 12.34 88.54 10.05 88.45 8.03 89.01 9.19 90.7 12.68 91.49 14L97.65 24.31 102.61 24.31 102.61 1.1 97.88 1.1 97.88 10.27C97.88 12.84 97.97 15.36 98.06 17.38 97.5 16.22 95.81 12.73 95.02 11.41L88.86 1.1ZM44.42 16.63C44.42 19.75 47.02 20.97 49.78 20.97 51.59 20.97 54.51 20.45 54.51 18.05 54.51 15.52 50.93 15.04 47.48 14.12 43.86 13.16 40.38 11.8 40.38 7.5 40.38 2.7 44.91.41 49.15.41 54.05.41 58.55 2.55 58.55 7.97L53.72 7.97C53.56 5.15 51.39 4.42 48.92 4.42 47.28 4.42 45.2 5.11 45.2 7.08 45.2 8.88 46.38 9.17 52.26 10.68 53.97 11.11 59.33 12.14 59.33 17.46 59.33 21.76 55.95 24.98 49.57 24.98 44.38 24.98 39.52 22.42 39.59 16.64L44.42 16.64 44.42 16.63Z"/><g><path d="M0.93,3.42 C0.93,2.14 1.97,1.1 3.25,1.1 C4.53,1.1 5.57,2.14 5.57,3.42 C5.57,4.7 4.53,5.74 3.25,5.74 C1.97,5.74 0.93,4.7 0.93,3.42 Z M3.24,5.97 C4.65,5.97 5.8,4.83 5.8,3.42 C5.8,2.01 4.65,0.86 3.24,0.86 C1.83,0.86 0.68,2 0.68,3.42 C0.69,4.83 1.84,5.97 3.24,5.97 Z" transform="translate(104.000000, 0.000000)"/><path d="M3.49,3.35 C3.76,3.35 3.99,3.17 3.99,2.84 C3.99,2.51 3.76,2.33 3.49,2.33 L2.72,2.33 L2.72,4.91 L2.2,4.91 L2.2,1.92 L3.5,1.92 C4.12,1.92 4.52,2.33 4.52,2.84 C4.52,3.29 4.19,3.63 3.85,3.68 L4.68,4.91 L4.06,4.91 L3.06,3.35 L3.49,3.35 L3.49,3.35 Z" transform="translate(104.000000, 0.000000)"/></g></g></g></svg>
    <svg id="cb-walmart" viewBox="0 0 115 64" fill="none" xmlns="http://www.w3.org/2000/svg"><path d="M.57 24.215s2.807 11.5 3.255 13.366c.522 2.18 1.464 2.981 4.18 2.44l1.752-7.13c.445-1.77.742-3.033 1.028-4.835h.05c.2 1.82.486 3.07.852 4.842 0 0 .713 3.236 1.079 4.936.366 1.7 1.385 2.77 4.045 2.188l4.176-15.806h-3.371L16.19 31.05c-.383 1.989-.731 3.543-1 5.363h-.047c-.243-1.802-.553-3.294-.943-5.232l-1.484-6.965H9.203l-1.587 6.79c-.45 2.062-.87 3.728-1.138 5.486h-.049c-.274-1.656-.639-3.75-1.034-5.746 0 0-.943-4.856-1.274-6.53H.57Zm32.138 0v15.806h3.21V24.214h-3.21v.001Zm45.205 0v11.66c0 1.608.302 2.734.95 3.422.565.602 1.496.992 2.612.992.95 0 1.883-.18 2.323-.344l-.041-2.509c-.328.081-.704.145-1.22.145-1.093 0-1.46-.7-1.46-2.143v-4.461h2.796v-3.024h-2.796v-3.738h-3.165ZM25.535 27.88c-1.995 0-3.578.56-4.442 1.059l.632 2.163c.79-.498 2.048-.91 3.239-.91 1.971-.005 2.294 1.114 2.294 1.833v.17c-4.297-.007-7.01 1.48-7.01 4.51 0 1.85 1.381 3.584 3.783 3.584 1.48 0 2.716-.59 3.457-1.534h.073s.49 2.052 3.195 1.267c-.143-.854-.189-1.765-.189-2.861v-4.223c0-2.69-1.149-5.058-5.032-5.058Zm19.2 0c-2.009 0-2.911 1.018-3.459 1.882h-.047v-1.614h-3.063v11.874h3.226v-6.963c0-.327.038-.672.152-.972.267-.701.92-1.522 1.96-1.522 1.303 0 1.912 1.101 1.912 2.69v6.767h3.223v-7.048c0-.311.043-.687.135-.962.265-.798.968-1.447 1.936-1.447 1.32 0 1.953 1.082 1.953 2.951v6.506h3.226v-6.993c0-3.688-1.873-5.149-3.987-5.149-.936 0-1.675.235-2.343.645-.562.345-1.065.834-1.504 1.48h-.048c-.51-1.28-1.71-2.125-3.273-2.125Zm17.718 0c-1.994 0-3.577.56-4.44 1.059l.632 2.163c.789-.498 2.047-.91 3.238-.91 1.97-.005 2.293 1.114 2.293 1.833v.17c-4.296-.007-7.01 1.48-7.01 4.51 0 1.85 1.383 3.584 3.786 3.584 1.478 0 2.715-.59 3.454-1.534h.073s.491 2.052 3.196 1.267c-.143-.854-.188-1.765-.188-2.861v-4.223c0-2.69-1.15-5.058-5.033-5.058Zm13.4 0c-1.235 0-2.641.798-3.231 2.508h-.09v-2.24h-2.905v11.874h3.311v-6.08c0-.328.02-.614.072-.876.245-1.274 1.22-2.088 2.617-2.088.384 0 .659.041.956.084v-3.108c-.249-.05-.42-.074-.73-.074Zm-48.492 6.419v1.481c0 .22-.019.445-.08.643-.248.823-1.1 1.518-2.165 1.518-.889 0-1.594-.504-1.594-1.57 0-1.632 1.795-2.083 3.84-2.072Zm36.92 0v1.481c0 .22-.02.445-.08.643-.249.823-1.101 1.518-2.166 1.518-.889 0-1.595-.504-1.595-1.57 0-1.632 1.796-2.083 3.84-2.072Z" fill="#007DC6"/><path d="M101.227 18.499c-1.036 0-1.86.579-1.86 1.283l.63 7.126c.069.43.595.76 1.231.76.637 0 1.161-.331 1.232-.76l.632-7.126c0-.704-.826-1.283-1.864-1.283h-.001Zm-10.255 5.716c-.538.013-1.15.42-1.538 1.094-.52.897-.428 1.9.18 2.252l6.486 3.02c.405.15.955-.137 1.274-.686.32-.552.295-1.173-.042-1.448l-5.857-4.108a.946.946 0 0 0-.503-.124Zm20.51 0a.945.945 0 0 0-.502.123l-5.858 4.108c-.335.276-.359.896-.041 1.448.32.55.868.838 1.274.687l6.487-3.02c.611-.352.699-1.355.182-2.252-.39-.674-1.002-1.081-1.54-1.094h-.002Zm-15.14 9.401a.659.659 0 0 0-.242.04l-6.484 3.017c-.609.353-.7 1.357-.18 2.255.517.896 1.43 1.322 2.04.97l5.857-4.105c.337-.278.362-.899.041-1.45l.003.001c-.259-.45-.672-.723-1.035-.728Zm9.773 0c-.363.005-.775.279-1.035.728l.003-.001c-.319.551-.294 1.172.041 1.45l5.858 4.105c.607.352 1.521-.074 2.042-.97.516-.898.429-1.901-.182-2.255l-6.486-3.016a.654.654 0 0 0-.241-.04Zm-4.889 2.953c-.635.001-1.159.33-1.229.76l-.629 7.124c0 .706.824 1.284 1.86 1.284 1.038 0 1.863-.578 1.863-1.284l-.631-7.125c-.071-.428-.595-.758-1.232-.759h-.002Z" fill="#FFC220"/></svg>
    <svg id="cb-best-buy" viewBox="0 0 115 64" fill="none" xmlns="http://www.w3.org/2000/svg"><path d="M17 8.595v20.721h10.85c4.27 0 8.216-1.498 8.216-5.901 0-2.976-2.144-4.335-4.502-5.046 1.437-.576 3.066-1.787 3.066-4.325 0-3.249-3.223-5.45-7.563-5.45H17Zm6.646 4.826h2.444c.995 0 1.753.779 1.753 1.57 0 .735-.788 1.52-1.753 1.52h-2.444v-3.09Zm0 7.392h3.226c1.126 0 2.071.855 2.071 1.832 0 1.038-.884 1.9-2.267 1.9h-3.03v-3.732ZM22.376 31.576v20.722h10.85c4.27 0 8.216-1.499 8.216-5.901 0-2.977-2.144-4.335-4.502-5.046 1.437-.577 3.066-1.787 3.066-4.325 0-3.249-3.223-5.45-7.563-5.45H22.377Zm6.646 4.827h2.444c.995 0 1.753.779 1.753 1.57 0 .734-.788 1.52-1.753 1.52h-2.444v-3.09Zm0 7.391h3.226c1.126 0 2.07.856 2.07 1.833 0 1.038-.883 1.9-2.265 1.9h-3.03v-3.733ZM36.588 29.314V8.592h16.714v5.005H43.215v2.717h8.19v4.692h-8.19v3.323h10.087v4.985H36.588ZM62.356 29.907c4.704 0 8.468-2.684 8.468-7.033 0-7.018-9.13-5.938-9.13-8.123 0-.844.887-1.292 1.797-1.292 1.57 0 2.703 1.033 2.703 1.033l3.928-3.74C68.55 9.257 66.07 8 62.727 8c-5.02 0-8.304 2.98-8.304 6.574 0 7.107 8.998 6.076 8.998 8.306 0 .782-.752 1.568-2.116 1.568-1.549 0-2.776-.935-3.73-1.728l-3.952 3.767c1.592 1.55 4.146 3.42 8.733 3.42ZM75.939 29.314V13.577h-5.474V8.592H88.06v4.985h-5.474v15.737H75.94ZM41.67 31.562h6.627v12.413c0 1.26 1.255 2.422 2.563 2.422 1.234 0 2.48-1.049 2.48-2.488V31.562h6.608v12.262c0 4.866-4.04 8.748-9.263 8.748-5.254 0-9.015-4.225-9.015-9.013V31.562ZM68.12 52.283V44.88l-7.79-13.317h6.706l4.407 7.135 4.422-7.135h6.72l-7.819 13.393v7.328H68.12Z" fill="#1C252C"/><path d="m82.585 42.903-3.91 3.91v5.277l3.91 3.91h16.539V42.903H82.586Z" fill="#FFED31"/><path d="M81.944 49.449a.88.88 0 1 1-1.76 0 .88.88 0 0 1 1.76 0Z" fill="#1C252C"/></svg>
    <svg id="cb-staples" viewBox="0 0 132 30" fill="none" xmlns="http://www.w3.org/2000/svg">
      <mask id="mask0_275_49443" style="mask-type:luminance" maskUnits="userSpaceOnUse" x="0" y="0" width="132" height="30">
      <path d="M131.462 0H0V29.4146H131.462V0Z" fill="white"/>
      </mask>
      <g mask="url(#mask0_275_49443)">
      <path d="M116.294 13.2979H112.597V2.97039H116.294V0H112.555C110.933 0 109.604 1.32072 109.604 2.93444V13.3337C109.604 14.9474 110.933 16.2683 112.555 16.2683H116.294V13.2979Z" fill="#E1251B"/>
      <path d="M119.28 2.97039H122.976V13.2979H119.28V16.2683H123.019C124.641 16.2683 125.969 14.9474 125.969 13.3337V2.93444C125.963 1.32072 124.641 0 123.019 0H119.28V2.97039Z" fill="#E1251B"/>
      <path d="M8.28166 22.2086C3.83436 22.2086 0.5469 19.8778 0 16.1364H4.54955C5.16256 17.6186 6.95955 18.1624 8.28166 18.1624C10.0787 18.1624 11.437 17.6246 11.437 16.6085C11.437 15.5926 10.8239 15.228 7.77089 14.7498C4.64572 14.2777 0.474785 13.435 0.474785 9.55013C0.474785 6.81882 2.88479 3.97998 7.93917 3.97998C11.9418 3.97998 14.9287 6.13754 15.5057 9.4127H10.854C10.5835 8.59988 9.59796 7.96043 7.93316 7.96043C5.86574 7.96043 5.01232 8.70152 5.01232 9.34701C5.01232 10.2554 6.30446 10.5602 8.474 10.9009C12.8192 11.6121 15.9385 12.5565 15.9385 16.3336C15.9385 19.7761 12.7471 22.2086 8.26973 22.2086" fill="#E1251B"/>
      <path d="M26.3712 21.7667C21.2447 22.3045 18.5341 19.2385 18.5341 14.4753V9.41301H16.4307V5.46246H18.5341V0H23.0115V5.46851H26.3712V9.41906H23.0115V14.5171C23.0115 16.9495 24.1295 17.858 26.3712 17.7205V21.7725V21.7667Z" fill="#E1251B"/>
      <path d="M56.6312 22.1734C54.6299 22.1734 52.8328 21.3966 51.5047 20.1175V26.2256H46.9912V4.42301H51.3003V6.2459C52.6586 4.85933 54.5217 4.0166 56.6312 4.0166C61.2107 4.0166 64.943 7.93136 64.943 13.0591C64.943 18.1871 61.2107 22.1734 56.6312 22.1734ZM55.9882 8.17044C53.5119 8.17044 51.5106 10.3638 51.5106 13.0652C51.5106 15.7666 53.5119 18.0258 55.9882 18.0258C58.4642 18.0258 60.4656 15.8982 60.4656 13.0652C60.4656 10.2322 58.4642 8.17044 55.9882 8.17044Z" fill="#E1251B"/>
      <path d="M70.8827 0H66.4053V21.8025H70.8827V0Z" fill="#E1251B"/>
      <path d="M76.8922 14.8518C77.4693 16.9794 79.164 18.2943 81.2675 18.2943C82.758 18.2943 84.2184 17.6548 84.9697 16.2682H89.7536C88.7378 19.8124 85.6488 22.209 81.3036 22.209C76.3814 22.209 72.3428 18.1568 72.3428 13.1305C72.3428 8.10421 76.3814 3.98633 81.3036 3.98633C86.2257 3.98633 90.7392 7.96678 90.0961 14.8518H76.8922ZM85.6488 11.2061C85.1079 9.17997 83.4071 7.90109 81.2735 7.90109C79.14 7.90109 77.6075 9.18602 76.9643 11.2061H85.6549H85.6488Z" fill="#E1251B"/>
      <path d="M99.1531 10.9009C96.9835 10.5662 95.6914 10.2613 95.6914 9.34701C95.6914 8.7074 96.5388 7.96043 98.6122 7.96043C100.277 7.96043 101.257 8.59988 101.533 9.4127H106.185C105.608 6.13754 102.621 3.97998 98.6183 3.97998C93.5639 3.97998 91.1538 6.81294 91.1538 9.55013C91.1538 13.4289 95.3309 14.2777 98.45 14.7498C101.503 15.2219 102.116 15.6283 102.116 16.6085C102.116 17.5887 100.758 18.1624 98.9608 18.1624C97.6808 18.1624 95.9558 17.6544 95.2947 16.2738H90.7031C91.3042 19.9374 94.5676 22.2146 98.9608 22.2146C103.354 22.2146 106.63 19.782 106.63 16.3395C106.63 12.5624 103.504 11.6121 99.1652 10.9068" fill="#E1251B"/>
      <path d="M35.2913 4.05225C37.2926 4.05225 39.0895 4.82928 40.4177 6.10817V4.42287H44.9312V21.8027H40.6222V19.9798C39.2639 21.3664 37.4008 22.2091 35.2913 22.2091C30.7117 22.2091 26.9795 18.2945 26.9795 13.1665C26.9795 8.03858 30.7117 4.05225 35.2913 4.05225ZM35.9343 18.0554C38.4105 18.0554 40.4117 15.8619 40.4117 13.1605C40.4117 10.4591 38.4105 8.20004 35.9343 8.20004C33.4582 8.20004 31.4569 10.3277 31.4569 13.1605C31.4569 15.9934 33.4582 18.0554 35.9343 18.0554Z" fill="#E1251B"/>
      <path d="M127.923 1.29639H129.335V1.75656H128.872V2.9758H128.386V1.75656H127.923V1.29639ZM131.463 1.29639V2.9758H130.97V2.07342L130.507 2.65305L130.044 2.07342V2.9758H129.557V1.29639H129.99L130.507 1.97178L131.024 1.29639H131.457H131.463Z" fill="#E1251B"/>
      <path d="M54.9368 24.2881H55.6039V25.1427H56.1569V25.8062H55.6039V26.882C55.6039 27.0493 55.7421 27.1867 55.9345 27.1867C56.1028 27.1867 56.211 27.133 56.211 27.133V27.7665C56.211 27.7665 55.9885 27.8502 55.7121 27.8502C55.1592 27.8502 54.8527 27.5453 54.8527 26.9119V25.8062H54.3779V25.1427H54.6304C54.7986 25.1427 54.9368 25.0053 54.9368 24.7842V24.2881Z" fill="#54565A"/>
      <path d="M57.6117 25.4243C57.6117 25.4243 57.8881 25.0358 58.387 25.0358C58.9999 25.0358 59.4448 25.478 59.4448 26.2251V27.8029H58.6935V26.3088C58.6935 25.98 58.4711 25.7589 58.1646 25.7589C57.834 25.7589 57.6117 25.98 57.6117 26.3925V27.8029H56.8604V23.936H57.6117V25.4303V25.4243Z" fill="#54565A"/>
      <path d="M60.7547 26.6912C60.8088 26.9662 61.0613 27.2173 61.476 27.2173C61.9508 27.2173 62.1972 26.8826 62.1972 26.8826L62.5879 27.3785C62.5879 27.3785 62.1732 27.8508 61.422 27.8508C60.6166 27.8508 59.9795 27.2173 59.9795 26.4402C59.9795 25.6633 60.6166 25.0298 61.3979 25.0298C62.1792 25.0298 62.7621 25.6096 62.7621 26.3865C62.7621 26.5778 62.7321 26.6912 62.7321 26.6912H60.7608H60.7547ZM60.7547 26.1654H62.0049C61.9508 25.8905 61.7284 25.6692 61.3919 25.6692C61.0553 25.6692 60.8389 25.8905 60.7547 26.1654Z" fill="#54565A"/>
      <path d="M66.4641 25.0894L66.993 26.721L67.5219 25.0894H68.2972L67.3716 27.7968H66.7166L66.1876 26.2489L65.6588 27.7968H65.0037L64.0781 25.0894H64.8535L65.3823 26.721L65.9111 25.0894H66.4641Z" fill="#54565A"/>
      <path d="M69.9442 27.8565C69.169 27.8565 68.502 27.1932 68.502 26.4461C68.502 25.6989 69.169 25.0356 69.9442 25.0356C70.7197 25.0356 71.3867 25.6989 71.3867 26.4461C71.3867 27.1932 70.7197 27.8565 69.9442 27.8565ZM69.9442 27.1633C70.3049 27.1633 70.6115 26.8585 70.6115 26.4461C70.6115 26.0338 70.3049 25.7288 69.9442 25.7288C69.5838 25.7288 69.2772 26.0338 69.2772 26.4461C69.2772 26.8585 69.5838 27.1633 69.9442 27.1633Z" fill="#54565A"/>
      <path d="M73.5617 25.8067C73.5617 25.8067 73.4776 25.7768 73.3093 25.7768C72.9185 25.7768 72.6723 26.0278 72.6723 26.494V27.7909H71.9209V25.0836H72.6723V25.4122C72.6723 25.4122 72.9486 25.0537 73.4475 25.0537H73.5557V25.8007L73.5617 25.8067Z" fill="#54565A"/>
      <path d="M74.7395 27.1336V27.7969H73.9883V23.9302H74.7395V26.1953L75.7131 25.0896H76.5725L75.5448 26.249L76.6266 27.7969H75.7912L75.0701 26.7452L74.7395 27.1336Z" fill="#54565A"/>
      <path d="M77.3552 24.731C77.1027 24.731 76.9404 24.5637 76.9404 24.3187C76.9404 24.0736 77.1087 23.9062 77.3552 23.9062C77.6317 23.9062 77.7998 24.0736 77.7998 24.3187C77.7998 24.5637 77.6317 24.731 77.3552 24.731ZM77.7457 27.797H76.9945V25.0897H77.7457V27.797Z" fill="#54565A"/>
      <path d="M79.2239 25.4241C79.2239 25.4241 79.5004 25.0356 79.9993 25.0356C80.6122 25.0356 81.0571 25.4778 81.0571 26.225V27.8027H80.3057V26.3086C80.3057 25.9799 80.0834 25.7588 79.7769 25.7588C79.4402 25.7588 79.2239 25.9799 79.2239 26.3923V27.8027H78.4727V25.0955H79.2239V25.4241Z" fill="#54565A"/>
      <path d="M83.622 27.3547C83.622 27.3547 83.3457 27.7431 82.8167 27.7431C82.2038 27.7431 81.5967 27.1336 81.5967 26.3865C81.5967 25.6395 82.2098 25.0298 82.8167 25.0298C83.3457 25.0298 83.622 25.4182 83.622 25.4182V25.0896H84.3734V27.5758C84.3734 28.3468 83.7603 28.9565 82.931 28.9565C82.1016 28.9565 81.6808 28.3767 81.6808 28.3767L82.1557 27.9345C82.1557 27.9345 82.408 28.293 82.9069 28.293C83.3516 28.293 83.6281 28.0181 83.6281 27.5758V27.3547H83.622ZM82.9851 27.0499C83.3215 27.0499 83.622 26.763 83.622 26.3865C83.622 26.0099 83.3156 25.7232 82.9851 25.7232C82.6545 25.7232 82.3721 25.998 82.3721 26.3865C82.3721 26.7751 82.6484 27.0499 82.9851 27.0499Z" fill="#54565A"/>
      <path d="M87.6913 27.522C87.6913 27.522 87.4148 27.8508 86.94 27.8508C86.3871 27.8508 86.0205 27.4921 86.0205 27.0798C86.0205 26.6375 86.3269 26.3268 86.8258 26.2371L87.6852 26.0817C87.6852 25.8606 87.5169 25.6932 87.2105 25.6932C86.7957 25.6932 86.5974 25.9681 86.5974 25.9681L86.1828 25.5558C86.1828 25.5558 86.5433 25.0298 87.2646 25.0298C87.9857 25.0298 88.4304 25.5019 88.4304 26.1055V27.791H87.6792V27.5161L87.6913 27.522ZM87.6913 26.6375V26.5538L87.0781 26.6674C86.886 26.6973 86.7717 26.8048 86.7717 26.9721C86.7717 27.1395 86.8799 27.2472 87.1322 27.2472C87.4628 27.2472 87.6852 27.0261 87.6852 26.6375H87.6913Z" fill="#54565A"/>
      <path d="M89.892 25.4241C89.892 25.4241 90.1683 25.0356 90.6672 25.0356C91.2802 25.0356 91.725 25.4778 91.725 26.225V27.8027H90.9738V26.3086C90.9738 25.9799 90.7514 25.7588 90.4448 25.7588C90.1142 25.7588 89.892 25.9799 89.892 26.3923V27.8027H89.1406V25.0955H89.892V25.4241Z" fill="#54565A"/>
      <path d="M94.375 25.4243V23.9302H95.1264V27.7969H94.375V27.4683C94.375 27.4683 94.0986 27.8567 93.5697 27.8567C92.8725 27.8567 92.2656 27.2472 92.2656 26.4463C92.2656 25.6454 92.8786 25.0358 93.5697 25.0358C94.0986 25.0358 94.375 25.4243 94.375 25.4243ZM94.375 26.4463C94.375 26.0041 94.0686 25.6991 93.7079 25.6991C93.3473 25.6991 93.0409 26.0041 93.0409 26.4463C93.0409 26.8885 93.3473 27.1934 93.7079 27.1934C94.0686 27.1934 94.375 26.8885 94.375 26.4463Z" fill="#54565A"/>
      <path d="M97.7473 27.7969H96.9961V23.9302H97.7473V27.7969Z" fill="#54565A"/>
      <path d="M99.0858 26.6912C99.1399 26.9662 99.3924 27.2173 99.8069 27.2173C100.282 27.2173 100.528 26.8826 100.528 26.8826L100.919 27.3785C100.919 27.3785 100.504 27.8508 99.7528 27.8508C98.9475 27.8508 98.3105 27.2173 98.3105 26.4402C98.3105 25.6633 98.9475 25.0298 99.7288 25.0298C100.51 25.0298 101.093 25.6096 101.093 26.3865C101.093 26.5778 101.063 26.6912 101.063 26.6912H99.0918H99.0858ZM99.0858 26.1654H100.336C100.282 25.8905 100.059 25.6692 99.7228 25.6692C99.3863 25.6692 99.17 25.8905 99.0858 26.1654Z" fill="#54565A"/>
      <path d="M103.119 27.522C103.119 27.522 102.842 27.8508 102.368 27.8508C101.815 27.8508 101.448 27.4921 101.448 27.0798C101.448 26.6375 101.755 26.3268 102.254 26.2371L103.113 26.0817C103.113 25.8606 102.945 25.6932 102.638 25.6932C102.223 25.6932 102.025 25.9681 102.025 25.9681L101.611 25.5558C101.611 25.5558 101.971 25.0298 102.692 25.0298C103.413 25.0298 103.858 25.5019 103.858 26.1055V27.791H103.107V27.5161L103.119 27.522ZM103.119 26.6375V26.5538L102.506 26.6674C102.314 26.6973 102.199 26.8048 102.199 26.9721C102.199 27.1395 102.308 27.2472 102.56 27.2472C102.891 27.2472 103.113 27.0261 103.113 26.6375H103.119Z" fill="#54565A"/>
      <path d="M106.215 25.8067C106.215 25.8067 106.131 25.7768 105.962 25.7768C105.572 25.7768 105.325 26.0278 105.325 26.494V27.7909H104.574V25.0836H105.325V25.4122C105.325 25.4122 105.602 25.0537 106.101 25.0537H106.215V25.8007V25.8067Z" fill="#54565A"/>
      <path d="M107.358 25.4241C107.358 25.4241 107.634 25.0356 108.133 25.0356C108.746 25.0356 109.191 25.4778 109.191 26.225V27.8027H108.44V26.3086C108.44 25.9799 108.217 25.7588 107.911 25.7588C107.574 25.7588 107.358 25.9799 107.358 26.3923V27.8027H106.606V25.0955H107.358V25.4241Z" fill="#54565A"/>
      <path d="M110.284 24.731C110.031 24.731 109.869 24.5637 109.869 24.3187C109.869 24.0736 110.037 23.9062 110.284 23.9062C110.56 23.9062 110.729 24.0736 110.729 24.3187C110.729 24.5637 110.56 24.731 110.284 24.731ZM110.674 27.797H109.923V25.0897H110.674V27.797Z" fill="#54565A"/>
      <path d="M112.153 25.4241C112.153 25.4241 112.429 25.0356 112.928 25.0356C113.541 25.0356 113.986 25.4778 113.986 26.225V27.8027H113.234V26.3086C113.234 25.9799 113.012 25.7588 112.706 25.7588C112.375 25.7588 112.153 25.9799 112.153 26.3923V27.8027H111.401V25.0955H112.153V25.4241Z" fill="#54565A"/>
      <path d="M116.545 27.3547C116.545 27.3547 116.268 27.7431 115.74 27.7431C115.127 27.7431 114.52 27.1336 114.52 26.3865C114.52 25.6395 115.133 25.0298 115.74 25.0298C116.268 25.0298 116.545 25.4182 116.545 25.4182V25.0896H117.296V27.5758C117.296 28.3468 116.683 28.9565 115.854 28.9565C115.024 28.9565 114.604 28.3767 114.604 28.3767L115.079 27.9345C115.079 27.9345 115.331 28.293 115.83 28.293C116.274 28.293 116.551 28.0181 116.551 27.5758V27.3547H116.545ZM115.908 27.0499C116.238 27.0499 116.545 26.763 116.545 26.3865C116.545 26.0099 116.238 25.7232 115.908 25.7232C115.577 25.7232 115.295 25.998 115.295 26.3865C115.295 26.7751 115.571 27.0499 115.908 27.0499Z" fill="#54565A"/>
      <path d="M120.422 25.0356C121.173 25.0356 121.533 25.5914 121.533 25.5914L121.059 26.0635C121.059 26.0635 120.836 25.705 120.422 25.705C120.031 25.705 119.7 26.0338 119.7 26.4521C119.7 26.8705 120.031 27.1991 120.422 27.1991C120.836 27.1991 121.089 26.8406 121.089 26.8406L121.533 27.3127C121.533 27.3127 121.173 27.8626 120.422 27.8626C119.616 27.8626 118.949 27.1991 118.949 26.4521C118.949 25.705 119.616 25.0415 120.422 25.0415V25.0356Z" fill="#54565A"/>
      <path d="M123.288 27.8565C122.513 27.8565 121.846 27.1932 121.846 26.4461C121.846 25.6989 122.513 25.0356 123.288 25.0356C124.063 25.0356 124.73 25.6989 124.73 26.4461C124.73 27.1932 124.063 27.8565 123.288 27.8565ZM123.288 27.1633C123.649 27.1633 123.955 26.8585 123.955 26.4461C123.955 26.0338 123.649 25.7288 123.288 25.7288C122.928 25.7288 122.621 26.0338 122.621 26.4461C122.621 26.8585 122.928 27.1633 123.288 27.1633Z" fill="#54565A"/>
      <path d="M125.633 27.0259C125.886 27.0259 126.078 27.2171 126.078 27.4383C126.078 27.6594 125.886 27.8506 125.633 27.8506C125.381 27.8506 125.188 27.6594 125.188 27.4383C125.188 27.2171 125.381 27.0259 125.633 27.0259Z" fill="#54565A"/>
      </g>
    </svg>
    <svg id="cb-menu" xmlns="http://www.w3.org/2000/svg" width="24" height="24" fill="none">
      <g clip-path="url(#a)"><path fill="#202124" d="M3 18v-2h18v2H3Zm0-5v-2h18v2H3Zm0-5V6h18v2H3Z"/></g><defs><clipPath id="a"><path fill="#fff" d="M0 0h24v24H0z"/></clipPath></defs>
    </svg>
    <svg id="cb-sync-saved-locally" xmlns="http://www.w3.org/2000/svg" width="25" height="24" fill="none"><g clip-path="url(#a)"><path fill="#202124" d="M11.425 14.05 17.1 8.4l-1.425-1.425-4.25 4.25L9.3 9.1l-1.4 1.4 3.525 3.55ZM1.5 21v-2h22v2h-22Zm3-3a1.99 1.99 0 0 1-1.425-.575A1.99 1.99 0 0 1 2.5 16V5c0-.55.192-1.017.575-1.4.4-.4.875-.6 1.425-.6h16c.55 0 1.017.2 1.4.6.4.383.6.85.6 1.4v11c0 .55-.2 1.025-.6 1.425-.383.383-.85.575-1.4.575h-16Zm0-2h16V5h-16v11Zm0 0V5v11Z"/></g><defs><clipPath id="a"><path fill="#fff" d="M.5 0h24v24H.5z"/></clipPath></defs></svg>
    <svg id="cb-green-battery" xmlns="http://www.w3.org/2000/svg" width="60" height="60"><path d="M35.773 7.602h3.551c.598 0 1.309-.106 1.867.12 1.028.426 1.84 1.458 1.993 2.567v43.024c0 1.152.187 2.566-.645 3.472-.59.645-1.797 1.172-2.66 1.219-3.879.21-7.774.172-11.656.137-1.75-.016-3.504-.04-5.254-.078-1.703-.032-4.098.234-5.438-1.106a2.103 2.103 0 0 1-.324-.418c-.566-.945-.441-2.152-.441-3.203V10.473c0-.063-.012-.13 0-.188.152-1.015.789-1.941 1.71-2.414.626-.32 1.317-.281 2.004-.293.258 0 3.692.031 3.692.016V1.898l.3-.296h11l.301.296Zm0 0" style="stroke:none;fill-rule:nonzero;fill:#1e8e3e;fill-opacity:1"/></svg>
    <svg id="cb-weight" xmlns="http://www.w3.org/2000/svg" width="24" height="24" fill="none"><g clip-path="url(#a)"><path fill="#202124" d="M6 19h12L16.575 9h-9.15L6 19Zm6-12a.948.948 0 0 0 .7-.275c.2-.2.3-.442.3-.725s-.1-.517-.3-.7A.908.908 0 0 0 12 5c-.283 0-.525.1-.725.3A.948.948 0 0 0 11 6c0 .283.092.525.275.725.2.183.442.275.725.275Zm2.825 0h1.75c.5 0 .933.167 1.3.5.367.333.592.742.675 1.225l1.425 10c.083.6-.075 1.133-.475 1.6-.383.45-.883.675-1.5.675H6c-.617 0-1.125-.225-1.525-.675-.383-.467-.533-1-.45-1.6l1.425-10c.083-.483.308-.892.675-1.225.367-.333.8-.5 1.3-.5h1.75a6.765 6.765 0 0 1-.125-.475A2.673 2.673 0 0 1 9 6c0-.833.292-1.542.875-2.125A2.893 2.893 0 0 1 12 3c.833 0 1.542.292 2.125.875S15 5.167 15 6c0 .183-.017.358-.05.525-.033.15-.075.308-.125.475ZM6 19h12H6Z"/></g><defs><clipPath id="a"><path fill="#fff" d="M0 0h24v24H0z"/></clipPath></defs></svg>
    <svg id="cb-thinness" xmlns="http://www.w3.org/2000/svg" width="24" height="24" fill="none"><g clip-path="url(#a)"><path fill="#202124" d="M4 18a1.99 1.99 0 0 1-1.425-.575A1.99 1.99 0 0 1 2 16V8c0-.55.192-1.017.575-1.4.4-.4.875-.6 1.425-.6h16c.55 0 1.017.2 1.4.6.4.383.6.85.6 1.4v8c0 .55-.2 1.025-.6 1.425-.383.383-.85.575-1.4.575H4Zm0-2h16V8h-3v4h-2V8h-2v4h-2V8H9v4H7V8H4v8Zm3-4h2-2Zm4 0h2-2Zm4 0h2-2Z"/></g><defs><clipPath id="a"><path fill="#fff" d="M0 0h24v24H0z"/></clipPath></defs></svg>
    <svg id="cb-grid-view" xmlns="http://www.w3.org/2000/svg" width="25" height="24" fill="none"><g clip-path="url(#a)"><path fill="#202124" d="M3.5 11V3h8v8h-8Zm0 10v-8h8v8h-8Zm10-10V3h8v8h-8Zm0 10v-8h8v8h-8Zm-8-12h4V5h-4v4Zm10 0h4V5h-4v4Zm0 10h4v-4h-4v4Zm-10 0h4v-4h-4v4Z"/></g><defs><clipPath id="a"><path fill="#fff" d="M.5 0h24v24H.5z"/></clipPath></defs></svg>
  </defs>
</svg>
